<svg width="31" height="32" viewBox="0 0 31 32" fill="none" xmlns="http://www.w3.org/2000/svg">
<path fill-rule="evenodd" clip-rule="evenodd" d="M15.6046 2.01312C15.6947 2.04925 15.8156 2.10981 16.0538 2.2311L27.7964 8.21113L22.8 10.7556L10.6036 4.54446L15.1462 2.2311C15.3844 2.10981 15.5053 2.04925 15.5954 2.01312C15.597 2.01249 15.5985 2.01188 15.6 2.01129C15.6015 2.01188 15.603 2.01249 15.6046 2.01312ZM8.39999 5.66667L20.5964 11.8778L15.6 14.4223L3.40359 8.21113L8.39999 5.66667ZM2.19999 9.84259L14.6 16.1574V29.2463L2.74619 23.2097C2.46216 23.065 2.31662 22.9895 2.21834 22.9261C2.21677 22.925 2.21524 22.9241 2.21375 22.9231C2.21356 22.9213 2.21337 22.9195 2.21318 22.9176C2.20121 22.8013 2.19999 22.6373 2.19999 22.3186V9.84259ZM16.6 29.2463V16.1574L21.8 13.5093V20.0778C21.8 20.6301 22.2477 21.0778 22.8 21.0778C23.3523 21.0778 23.8 20.6301 23.8 20.0778V12.4907L29 9.84259V22.3186C29 22.6373 28.9988 22.8013 28.9868 22.9176C28.9866 22.9195 28.9864 22.9213 28.9862 22.9231C28.9847 22.9241 28.9832 22.9251 28.9816 22.9261C28.8834 22.9895 28.7378 23.065 28.4538 23.2097L16.6 29.2463ZM16.8691 0.401457C16.5274 0.225157 16.091 0 15.6 0C15.109 0 14.6726 0.225157 14.3309 0.401457C14.2993 0.417761 14.2685 0.433647 14.2386 0.448898L0.746189 7.32003C0.411034 7.49071 0.199991 7.83501 0.199991 8.21113L0.199987 22.3558C0.199936 22.6217 0.199883 22.8909 0.223661 23.1222C0.250906 23.3872 0.315311 23.6838 0.494822 23.9767C0.674334 24.2696 0.909452 24.4616 1.13323 24.6061C1.32855 24.7323 1.56843 24.8544 1.80544 24.975L15.1462 31.7689C15.4313 31.9141 15.7687 31.9141 16.0538 31.7689L29.3946 24.975C29.6316 24.8543 29.8715 24.7322 30.0668 24.6061C30.2905 24.4616 30.5256 24.2696 30.7052 23.9767C30.8847 23.6838 30.9491 23.3872 30.9763 23.1222C31.0001 22.8909 31 22.6217 31 22.3558L31 8.21113C31 7.83501 30.7889 7.49071 30.4538 7.32003L16.9614 0.448898C16.9314 0.433647 16.9007 0.417761 16.8691 0.401457Z" fill="#7F203B"/>
</svg>
