<svg width="36" height="30" viewBox="0 0 36 30" fill="none" xmlns="http://www.w3.org/2000/svg">
<path d="M2.71857 13.1619C12.1138 9.0686 18.3787 6.37001 21.5134 5.06619C30.4636 1.34351 32.3233 0.696837 33.5355 0.675256C33.8021 0.670787 34.3982 0.736859 34.7844 1.05018C35.1104 1.31474 35.2001 1.67213 35.243 1.92297C35.286 2.1738 35.3394 2.74521 35.2969 3.19169C34.8119 8.28776 32.7133 20.6546 31.6456 26.3622C31.1938 28.7774 30.3043 29.5872 29.4431 29.6664C27.5715 29.8386 26.1504 28.4296 24.3377 27.2413C21.5012 25.3819 19.8987 24.2245 17.1454 22.4101C13.9634 20.3132 16.0262 19.1607 17.8395 17.2773C18.3141 16.7844 26.5602 9.28387 26.7198 8.60346C26.7398 8.51836 26.7583 8.20116 26.5699 8.03366C26.3814 7.86617 26.1033 7.92345 25.9026 7.969C25.6181 8.03357 21.0868 11.0286 12.3085 16.9542C11.0223 17.8374 9.85728 18.2677 8.81347 18.2452C7.66275 18.2203 5.44923 17.5946 3.80371 17.0597C1.7854 16.4036 0.181297 16.0567 0.320979 14.9425C0.393734 14.3622 1.19293 13.7686 2.71857 13.1619Z" fill="white"/>
</svg>
