<svg width="36" height="36" viewBox="0 0 36 36" fill="none" xmlns="http://www.w3.org/2000/svg">
<path d="M0.5 17.1C0.5 9.17838 0.5 5.22338 2.95 2.75005C5.435 0.300049 9.39 0.300049 17.3 0.300049H18.7C26.6217 0.300049 30.5767 0.300049 33.05 2.75005C35.5 5.23505 35.5 9.19005 35.5 17.1V18.5C35.5 26.4217 35.5 30.3767 33.05 32.85C30.565 35.3 26.61 35.3 18.7 35.3H17.3C9.37833 35.3 5.42333 35.3 2.95 32.85C0.5 30.365 0.5 26.41 0.5 18.5V17.1Z" fill="#0077FF"/>
<path d="M19.121 25.5117C11.141 25.5117 6.59096 20.0517 6.4043 10.9517H10.4176C10.546 17.6251 13.486 20.4484 15.8193 21.0317V10.9517H19.5876V16.7034C21.886 16.4584 24.3126 13.8334 25.1293 10.9401H28.886C28.5796 12.4378 27.9678 13.8563 27.0885 15.1068C26.2093 16.3574 25.0816 17.4133 23.776 18.2084C25.233 18.9336 26.5198 19.9595 27.5515 21.2184C28.5831 22.4773 29.3362 23.9405 29.761 25.5117H25.6193C24.7326 22.7467 22.516 20.6001 19.5876 20.3084V25.5117H19.1326H19.121Z" fill="white"/>
</svg>
