<svg width="36" height="36" viewBox="0 0 36 36" fill="none" xmlns="http://www.w3.org/2000/svg">
<path fill-rule="evenodd" clip-rule="evenodd" d="M30.25 5.3313C26.9688 2.05005 22.5937 0.300049 18 0.300049C8.375 0.300049 0.5 8.17505 0.5 17.8C0.5 20.8625 1.37501 23.925 2.90626 26.55L0.5 35.3L9.68753 32.8938C12.3125 34.2063 15.1562 35.0813 18 35.0813C27.625 35.0813 35.5 27.2063 35.5 17.5813C35.5 12.9875 33.5313 8.61255 30.25 5.3313ZM18 32.2375C15.375 32.2375 12.75 31.5813 10.5625 30.2688L10.125 30.05L4.65624 31.5813L6.18751 26.3313L5.74999 25.675C4.21874 23.2688 3.56249 20.6438 3.56249 18.0188C3.56249 10.1438 10.125 3.5813 18 3.5813C21.9375 3.5813 25.4375 5.11255 28.2813 7.73755C31.125 10.5813 32.4375 14.0813 32.4375 18.0188C32.4375 25.675 26.0937 32.2375 18 32.2375ZM25.875 21.3C25.4375 21.0813 23.25 19.9875 22.8125 19.9875C22.375 19.7688 22.1562 19.7688 21.9375 20.2063C21.7187 20.6438 20.8438 21.5188 20.625 21.9563C20.4063 22.175 20.1875 22.175 19.75 22.175C19.3125 21.9563 18 21.5188 16.25 19.9875C14.9375 18.8938 14.0625 17.3625 13.8438 16.925C13.625 16.4875 13.8438 16.2688 14.0625 16.05C14.2813 15.8313 14.5 15.6125 14.7187 15.3938C14.9375 15.175 14.9375 14.9563 15.1563 14.7375C15.375 14.5188 15.1563 14.3 15.1563 14.0813C15.1563 13.8625 14.2813 11.675 13.8438 10.8C13.625 10.1438 13.1875 10.1438 12.9688 10.1438C12.75 10.1438 12.5312 10.1438 12.0937 10.1438C11.875 10.1438 11.4375 10.1438 11 10.5813C10.5625 11.0188 9.46876 12.1125 9.46876 14.3C9.46876 16.4875 11 18.4563 11.2187 18.8938C11.4375 19.1125 14.2812 23.7063 18.6562 25.4563C22.375 26.9875 23.0313 26.55 23.9063 26.55C24.7813 26.55 26.5312 25.4563 26.75 24.5813C27.1875 23.4875 27.1875 22.6125 26.9688 22.6125C26.75 21.5188 26.3125 21.5188 25.875 21.3Z" fill="white"/>
</svg>
