<svg width="36" height="26" viewBox="0 0 36 26" fill="none" xmlns="http://www.w3.org/2000/svg">
<path d="M34.625 4.2688C34.1875 2.73755 33.0938 1.6438 31.5625 1.2063C28.9375 0.550049 17.7812 0.550049 17.7812 0.550049C17.7812 0.550049 6.84376 0.550049 4.00001 1.2063C2.46876 1.6438 1.37499 2.73755 0.937493 4.2688C0.499993 7.11255 0.5 12.8001 0.5 12.8001C0.5 12.8001 0.500007 18.4876 1.15626 21.3313C1.59376 22.8626 2.68749 23.9563 4.21874 24.3938C6.84374 25.0501 18 25.0501 18 25.0501C18 25.0501 28.9375 25.0501 31.7812 24.3938C33.3125 23.9563 34.4063 22.8626 34.8438 21.3313C35.5 18.4876 35.5 12.8001 35.5 12.8001C35.5 12.8001 35.5 7.11255 34.625 4.2688ZM14.5 18.0501V7.55005L23.6875 12.8001L14.5 18.0501Z" fill="white"/>
</svg>
