<svg width="70" height="70" viewBox="0 0 70 70" fill="none" xmlns="http://www.w3.org/2000/svg">
<path d="M0 44.688H13.7428C12.8293 45.9095 12.2775 47.404 12.2775 49.0541H5.50769L0 47.6592V44.688ZM70 36.9052V49.055H64.1667C64.1667 48.8816 64.1438 48.718 64.1297 48.5446C64.0663 47.5509 63.7926 46.6031 63.3596 45.7458C62.1521 43.3854 59.7054 41.7713 56.875 41.7713C52.8468 41.7713 49.5789 45.0347 49.5789 49.0541H26.8564C26.8564 47.404 26.3072 45.9095 25.3866 44.688H47.1138V19.4025H59.3006V22.3183L63.188 33.985L70 36.9052ZM60.2696 33.9859L57.3617 25.2359H50.5541V33.9859H60.2696ZM24.9105 49.0541C24.9105 52.0069 22.5184 54.4043 19.5718 54.4043C16.6137 54.4043 14.2234 51.9981 14.2234 49.0541C14.2234 46.1146 16.6181 43.7137 19.5718 43.7137C22.5175 43.7137 24.9105 46.1102 24.9105 49.0541ZM22.4832 49.0541C22.4832 47.4506 21.1727 46.1375 19.5709 46.1375C17.9533 46.1375 16.6401 47.4506 16.6401 49.0541C16.6401 50.6771 17.9524 51.9699 19.5709 51.9699C21.1736 51.9708 22.4832 50.6771 22.4832 49.0541ZM62.2208 49.0541C62.2208 52.0069 59.819 54.4043 56.875 54.4043C53.9038 54.4043 51.5248 51.9981 51.5248 49.0541C51.5248 46.1146 53.9222 43.7137 56.875 43.7137C59.819 43.7137 62.2208 46.1102 62.2208 49.0541ZM59.7925 49.0541C59.7925 47.4506 58.4847 46.1375 56.8759 46.1375C55.2486 46.1375 53.9601 47.4506 53.9601 49.0541C53.9601 50.6771 55.2494 51.9699 56.8759 51.9699C58.4838 51.9708 59.7925 50.6771 59.7925 49.0541ZM44.6072 15.5952H0V43.0114H44.6072V15.5952Z" fill="#BF5C7A"/>
</svg>
