<svg width="63" height="62" viewBox="0 0 63 62" fill="none" xmlns="http://www.w3.org/2000/svg">
<path d="M45.3832 16.6984C40.079 16.6984 35.064 15.7751 31.2622 14.0985C30.1244 13.5967 29.124 13.0376 28.2665 12.4316V16.1832C28.2665 17.6078 29.9346 19.1939 32.7287 20.426C36.0788 21.9034 40.5729 22.717 45.3833 22.717C50.1936 22.717 54.6877 21.9034 58.0378 20.426C60.8319 19.1939 62.5 17.6078 62.5 16.1832V12.4316C61.6425 13.0376 60.6421 13.5967 59.5043 14.0985C55.7022 15.7751 50.6874 16.6984 45.3832 16.6984Z" fill="#BF5C7A"/>
<path d="M45.3832 51.6655C50.1936 51.6655 54.6876 50.8519 58.0377 49.3745C60.8318 48.1424 62.4999 46.5563 62.4999 45.1318V41.3801C61.6424 41.9861 60.642 42.5452 59.5042 43.047C55.7023 44.7236 50.6874 45.6468 45.3832 45.6468C43.2261 45.6468 41.1308 45.4954 39.1251 45.1995C39.0597 47.2147 38.7104 49.1592 38.1163 50.9948C40.3893 51.4353 42.8641 51.6655 45.3832 51.6655Z" fill="#BF5C7A"/>
<path d="M33.824 30.5167C37.0249 31.7101 41.1077 32.3663 45.3832 32.3663C50.1936 32.3663 54.6876 31.5527 58.0377 30.0754C60.8318 28.8432 62.4999 27.2572 62.4999 25.8327V22.081C61.6424 22.687 60.642 23.2462 59.5042 23.7479C55.7023 25.4245 50.6874 26.3477 45.3832 26.3477C40.0791 26.3477 35.0641 25.4245 31.2622 23.7479C30.1244 23.2461 29.124 22.687 28.2665 22.081V26.0459C30.3639 27.2157 32.2423 28.7318 33.824 30.5167Z" fill="#BF5C7A"/>
<path d="M45.3832 42.0159C50.1936 42.0159 54.6876 41.2023 58.0377 39.7249C60.8318 38.4928 62.4999 36.9068 62.4999 35.4823V31.7306C61.6424 32.3366 60.642 32.8956 59.5042 33.3975C55.7023 35.074 50.6874 35.9973 45.3832 35.9973C42.4465 35.9973 39.5758 35.7077 36.9549 35.1643C37.9246 37.1217 38.5995 39.2496 38.9214 41.4902C40.9698 41.8375 43.1362 42.0159 45.3832 42.0159Z" fill="#BF5C7A"/>
<path d="M32.7287 10.7764C36.0788 12.2538 40.5729 13.0674 45.3833 13.0674C50.1937 13.0674 54.6877 12.2538 58.0378 10.7764C60.8319 9.54426 62.5 7.95821 62.5 6.53374C62.5 5.10927 60.8319 3.5231 58.0378 2.29096C54.6877 0.813601 50.1935 0 45.3833 0C40.573 0 36.0788 0.813601 32.7287 2.29096C29.9346 3.5231 28.2665 5.10915 28.2665 6.53374C28.2665 7.95833 29.9346 9.54426 32.7287 10.7764Z" fill="#BF5C7A"/>
<path d="M20.9833 37.2181H17.2799V43.1518H20.9833C22.6222 43.1518 23.9556 41.8208 23.9556 40.185C23.9556 38.5491 22.6222 37.2181 20.9833 37.2181Z" fill="#BF5C7A"/>
<path fill-rule="evenodd" clip-rule="evenodd" d="M35.5047 44.5065C35.5047 34.8606 27.6532 27.013 18.0024 27.013C8.35156 27.013 0.5 34.8606 0.5 44.5065C0.5 54.1524 8.35156 62 18.0024 62C27.6532 62 35.5047 54.1524 35.5047 44.5065ZM28.2445 40.185C28.2445 44.1875 25.0004 47.4324 20.9833 47.4324H17.2799V48.9885H21.7143C21.9116 48.9885 22.0891 49.0718 22.2134 49.2051C22.3272 49.3268 22.3968 49.4901 22.3968 49.6697V52.588C22.3968 52.9641 22.0914 53.2692 21.7143 53.2692H17.2799V55.5064C17.2799 55.7235 17.178 55.917 17.0193 56.0417C16.9032 56.1331 16.7567 56.1875 16.5973 56.1875H13.6735C13.2968 56.1875 12.9913 55.8825 12.9913 55.5064V53.2692H11.4807C11.1037 53.2692 10.7982 52.9642 10.7982 52.588V49.6697C10.7982 49.2935 11.1037 48.9885 11.4807 48.9885H12.9913V47.4324H11.4807C11.1037 47.4324 10.7982 47.1275 10.7982 46.7514V43.8328C10.7982 43.4567 11.1037 43.1518 11.4807 43.1518H12.9913V33.6187C12.9913 33.2426 13.2968 32.9375 13.6735 32.9375H20.9833C24.9872 32.9375 28.2445 36.1888 28.2445 40.185Z" fill="#BF5C7A"/>
</svg>
