<svg width="57" height="57" viewBox="0 0 57 57" fill="none" xmlns="http://www.w3.org/2000/svg">
<path d="M52.4084 11.02H48.3274C48.8657 10.1564 49.2209 9.18705 49.3222 8.16184C49.6458 4.88541 47.9436 1.94831 45.0456 0.646146C42.3819 -0.550783 39.3885 -0.0614884 37.2329 1.92033L32.0798 6.65455C31.0762 5.54187 29.6335 4.84256 28.0324 4.84256C26.4284 4.84256 24.9834 5.54409 23.9796 6.66021L18.8199 1.91978C16.6609 -0.0620433 13.6686 -0.549451 11.0061 0.646812C8.10891 1.94908 6.40638 4.88718 6.73095 8.1635C6.83245 9.18794 7.18746 10.1569 7.72566 11.02H3.65636C1.63694 11.02 0 12.6795 0 14.7265V20.2862C0 21.3096 0.818524 22.1395 1.82824 22.1395H54.2366C55.2462 22.1395 56.0649 21.3097 56.0649 20.2862V14.7265C56.0648 12.6795 54.4278 11.02 52.4084 11.02ZM22.5478 10.4023V11.02H13.9472C11.6748 11.02 9.88645 8.87258 10.454 6.47428C10.704 5.4181 11.456 4.51777 12.4287 4.062C13.7644 3.43617 15.244 3.63708 16.3659 4.6664L22.5493 10.3477C22.549 10.366 22.5478 10.384 22.5478 10.4023ZM45.6943 7.66977C45.5581 9.59598 43.8417 11.0202 41.9367 11.0202H33.517V10.4025C33.517 10.3806 33.5157 10.359 33.5154 10.3371C34.9162 9.04996 37.955 6.25805 39.6031 4.74366C40.5397 3.88306 41.8504 3.48135 43.0619 3.84765C44.8004 4.37336 45.8214 5.8721 45.6943 7.66977Z" fill="#BF5C7A"/>
<path d="M3.65636 25.8459V53.0269C3.65636 55.074 5.2933 56.7333 7.31273 56.7333H24.3759V25.8459H3.65636Z" fill="#BF5C7A"/>
<path d="M31.6887 25.8459V56.7333H48.7519C50.7713 56.7333 52.4083 55.074 52.4083 53.0269V25.8459H31.6887Z" fill="#BF5C7A"/>
<path d="M52.4084 11.02H48.3274C48.8657 10.1564 49.2209 9.18705 49.3222 8.16184C49.6458 4.88541 47.9436 1.94831 45.0456 0.646146C42.3819 -0.550783 39.3885 -0.0614884 37.2329 1.92033L32.0798 6.65455C31.0762 5.54187 29.6335 4.84256 28.0324 4.84256C26.4284 4.84256 24.9834 5.54409 23.9796 6.66021L18.8199 1.91978C16.6609 -0.0620433 13.6686 -0.549451 11.0061 0.646812C8.10891 1.94908 6.40638 4.88718 6.73095 8.1635C6.83245 9.18794 7.18746 10.1569 7.72566 11.02H3.65636C1.63694 11.02 0 12.6795 0 14.7265V20.2862C0 21.3096 0.818524 22.1395 1.82824 22.1395H54.2366C55.2462 22.1395 56.0649 21.3097 56.0649 20.2862V14.7265C56.0648 12.6795 54.4278 11.02 52.4084 11.02ZM22.5478 10.4023V11.02H13.9472C11.6748 11.02 9.88645 8.87258 10.454 6.47428C10.704 5.4181 11.456 4.51777 12.4287 4.062C13.7644 3.43617 15.244 3.63708 16.3659 4.6664L22.5493 10.3477C22.549 10.366 22.5478 10.384 22.5478 10.4023ZM45.6943 7.66977C45.5581 9.59598 43.8417 11.0202 41.9367 11.0202H33.517V10.4025C33.517 10.3806 33.5157 10.359 33.5154 10.3371C34.9162 9.04996 37.955 6.25805 39.6031 4.74366C40.5397 3.88306 41.8504 3.48135 43.0619 3.84765C44.8004 4.37336 45.8214 5.8721 45.6943 7.66977Z" fill="#BF5C7A"/>
<path d="M3.65636 25.8459V53.0269C3.65636 55.074 5.2933 56.7333 7.31273 56.7333H24.3759V25.8459H3.65636Z" fill="#BF5C7A"/>
<path d="M31.6887 25.8459V56.7333H48.7519C50.7713 56.7333 52.4083 55.074 52.4083 53.0269V25.8459H31.6887Z" fill="#BF5C7A"/>
</svg>
