<svg width="651" height="590" viewBox="0 0 651 590" fill="none" xmlns="http://www.w3.org/2000/svg">
<path d="M48.9141 293.933L415.901 91.1462L461.81 -4.78668e-05L13.4693 255.818C9.06167 258.333 8.71118 264.556 12.8085 267.55L48.9141 293.933Z" fill="#F5C4D6"/>
<path d="M48.4655 292.138L417.468 89.3196L433.495 214.504L495.598 231.515L573.727 373.71L206.279 575.606L48.4655 292.138Z" fill="#EAB8CB"/>
<path d="M163.122 545.234L385.704 402.531L617 275.5L577.097 376.055L208.222 577.993L163.122 545.234Z" fill="#FFD9E7"/>
<path d="M202.836 520.553L159.756 380.542L167.833 546.581L202.836 520.553Z" fill="#FFD9E7"/>
<path d="M434.394 218.543L419.136 245.917L413.751 86.1605L427.214 45.7728L458.626 15.2576L434.394 218.543Z" fill="#F5C4D6"/>
<path d="M514.27 332.077L418.686 245.468L436.187 214.504L605.815 279.124L514.27 332.077Z" fill="#FFD9E7"/>
<path d="M80.775 349.13L9.87207 262.969L149.883 379.645V397.595L80.775 349.13Z" fill="#F5C4D6"/>
<path d="M286.304 467.764C286.304 467.764 277.179 471.639 274.188 474.78C278.226 479.268 290.522 491.368 302.01 496.035C316.37 501.869 320.858 488.855 335.218 478.983C349.578 469.11 362.592 475.393 390.863 480.329C419.135 485.265 436.976 472.452 453.24 461.032C474.331 446.224 488.243 412.567 491.833 401.797C495.423 391.027 508.885 361.858 512.026 352.883C515.168 343.908 513.373 329.385 501.705 337.462C497.943 340.067 503.5 341.501 498.564 352.883C498.028 354.118 492.281 378.911 485.55 396.412C478.819 413.913 472.536 429.171 453.24 451.609C433.943 474.046 407.467 474.495 386.376 467.764C365.284 461.033 342.398 467.764 332.077 473.149C321.755 478.534 313.678 482.124 307.844 482.124C302.01 482.124 286.304 467.764 286.304 467.764Z" fill="#EA648D"/>
<path d="M124.472 207.417L104.727 238.83C104.727 244.574 108.616 245.112 110.56 244.663L135.242 202.032L124.472 207.417Z" fill="#0E184B"/>
<path d="M349.297 77.2787C346.904 80.1208 341.938 85.9845 341.22 86.7025C350.644 88.9463 364.555 110.038 368.594 109.589C371.825 109.23 373.231 104.353 373.53 101.96L349.297 77.2787Z" fill="#0E184B"/>
<path d="M493.629 339.553L510.682 285.703C517.862 281.754 517.862 288.545 516.964 292.434L501.706 337.309L493.629 339.553Z" fill="#0E184B"/>
<path d="M268.355 470.544L262.072 415.347C264.944 411.757 270.449 415.048 272.842 417.142L280.022 470.544H268.355Z" fill="#0E184B"/>
<path d="M96.2008 162.542C98.3548 177.62 107.868 195.45 112.356 202.481L127.165 195.301C123.874 191.112 116.305 182.107 112.356 179.594C107.42 176.453 106.073 160.298 104.727 145.938C103.65 134.45 108.167 112.73 110.561 103.306C118.937 104.204 137.486 106.268 144.666 107.345C153.641 108.691 181.015 106.448 192.683 101.96C204.35 97.4725 224.095 104.653 241.148 109.589C258.2 114.525 257.303 105.999 259.547 101.96C261.79 97.9213 264.932 64.2648 287.818 53.9435C306.127 45.6865 325.663 67.5557 333.142 79.5224L346.156 71.4449L341.668 64.2648C339.425 60.6748 322.372 44.071 302.178 38.6859C281.984 33.3009 268.073 51.251 259.547 59.3285C251.02 67.4061 253.713 90.7412 250.572 95.2288C247.43 99.7163 234.865 90.7412 224.095 90.7412H187.297C176.527 90.7412 157.231 94.78 144.666 95.2288C132.101 95.6775 124.921 92.5362 119.536 90.7412C114.151 88.9462 106.073 94.3313 101.137 101.96C96.2008 109.589 93.5083 143.694 96.2008 162.542Z" fill="#EA648D"/>
<path fill-rule="evenodd" clip-rule="evenodd" d="M441.914 205.008L615.951 272.309C618.331 273.229 618.633 276.466 616.395 277.693C584.488 295.192 425.135 382.686 386.825 405.672C347.991 428.973 194.1 528.233 166.988 545.734C165.097 546.955 162.643 545.7 162.43 543.46L146.859 379.533C146.784 378.742 146.399 378.014 145.787 377.507L8.28068 263.498C6.66487 262.159 6.889 259.616 8.71428 258.58L249.955 121.612L458.787 1.65371C460.935 0.420236 463.567 2.1726 463.258 4.62961L446.958 134.177L440.011 201.904C439.873 203.249 440.652 204.521 441.914 205.008ZM435.206 219.374L591.114 279.437C593.521 280.364 593.816 283.643 591.535 284.845C561.365 300.737 421.306 374.76 380.543 400.736C334.77 429.905 176.809 530.426 176.809 530.426L160.856 381.534C160.733 380.381 160.016 379.406 159.016 378.817C140.799 368.093 19.7456 267.008 19.7456 267.008L211.812 161.102L451.192 25.8191C453.338 24.6064 455.95 26.3556 455.645 28.8016L441.573 141.806L433.302 216.243C433.152 217.598 433.934 218.884 435.206 219.374Z" fill="#E9578C"/>
<path d="M286.53 188.642C272.942 185.862 272.55 192.922 271.774 194.312C260.127 190.837 250.421 205.086 255.468 214.818C260.515 224.55 262.535 236.367 251.974 236.367C236.835 236.367 229.847 269.623 239.165 279.007C248.482 288.391 250.421 293.366 248.479 301.36C246.538 309.354 267.891 311.091 283.421 308.311C298.951 305.53 327.296 305.074 332.343 292.91C337.39 280.745 313.417 262.533 321.472 256.764C333.119 248.422 327.296 227.221 318.366 225.484C310.545 223.961 304.389 217.288 304.389 208.106C304.389 201.046 300.119 191.423 286.53 188.642Z" fill="#0E184B"/>
<path d="M272.489 258.583C268.395 253.294 270.783 245.717 272.489 242.59C276.043 242.234 283.407 241.396 284.431 240.884C285.454 240.372 289.548 241.808 291.468 242.59C292.676 242.59 295.477 242.888 297.012 244.082C298.931 245.575 297.225 246.215 297.012 247.281C296.841 248.134 295.661 254.318 295.093 257.303L287.843 265.62C284.431 265.478 276.583 263.871 272.489 258.583Z" fill="#EE8989"/>
<path d="M230.482 221.716C233.212 220.01 242.282 223.564 246.475 225.554L252.233 250.716L255.858 272.68L252.233 280.144L250.1 269.268C249.39 267.989 247.669 265.132 246.475 263.937C244.983 262.445 237.946 252.422 236.879 250.716C235.813 249.011 227.07 232.591 226.217 230.672C225.364 228.753 227.07 223.848 230.482 221.716Z" fill="#FFB0B0"/>
<path fill-rule="evenodd" clip-rule="evenodd" d="M252.16 279.773L250.1 269.269C249.39 267.989 247.669 265.132 246.475 263.937C244.983 262.445 237.946 252.422 236.879 250.717C235.813 249.011 227.07 232.591 226.217 230.672C225.691 229.488 226.139 227.167 227.361 225.062C227.404 225.075 227.448 225.089 227.493 225.104C226.518 227.876 227.73 231.359 228.997 233.476C229.632 234.536 231.926 236.691 234.382 238.998C236.831 241.299 239.441 243.75 240.726 245.418L252.377 251.591L255.858 272.68L252.339 279.925C252.28 279.875 252.22 279.824 252.16 279.773Z" fill="#EE8989"/>
<path d="M329.422 226.839C326.691 225.137 317.407 231.638 313.216 233.634L307.709 255.868L304.112 277.836L307.747 285.295L309.865 274.417C310.574 273.137 312.291 270.277 313.483 269.081C314.974 267.587 321.998 257.555 323.062 255.848C324.126 254.141 332.848 237.71 333.699 235.79C334.549 233.87 332.837 228.967 329.422 226.839Z" fill="#FFB0B0"/>
<path fill-rule="evenodd" clip-rule="evenodd" d="M307.819 284.926L309.866 274.417C310.575 273.137 312.291 270.277 313.484 269.082C314.975 267.587 321.999 257.556 323.063 255.848C324.127 254.141 332.849 237.71 333.699 235.79C334.244 234.56 333.738 232.108 332.407 229.944C332.338 229.963 332.268 229.985 332.196 230.009C333.814 232.352 332.189 236.479 330.925 238.598C329.66 240.716 323.453 246.641 317.909 250.267L307.6 256.535L304.113 277.836L307.641 285.078C307.7 285.028 307.759 284.977 307.819 284.926Z" fill="#EE8989"/>
<path d="M270.995 352.196C270.781 350.916 272.061 343.24 272.061 343.026C272.151 342.387 276.752 341.96 276.965 342.387C277.179 342.813 276.539 352.196 276.112 353.688C275.686 355.181 273.554 356.461 273.127 356.247C272.701 356.034 271.208 353.475 270.995 352.196Z" fill="#0E184B"/>
<path d="M308.312 355.395C307.288 354.542 305.468 348.642 304.687 345.799C304.687 344.732 308.312 344.519 308.738 345.159C309.165 345.799 312.363 351.343 312.79 353.049C313.216 354.755 313.429 357.314 313.216 357.74C313.003 358.167 309.591 356.461 308.312 355.395Z" fill="#0E184B"/>
<path d="M252.441 290.782C250.735 284.129 253.152 275.216 254.574 271.591C255.64 277.135 265.022 290.356 281.869 290.143C295.345 289.972 303.903 280.405 307.244 275.856C307.529 276.637 309.803 279.481 310.656 282.892C311.722 287.157 311.722 297.18 311.722 300.805C311.722 304.43 309.59 314.026 309.163 315.732C308.737 317.438 308.95 319.996 309.163 322.129C309.377 324.261 310.443 341.747 310.869 342.6C311.296 343.453 311.083 344.732 310.443 345.372C309.803 346.012 307.458 346.225 305.325 346.438C303.193 346.652 303.406 344.732 302.553 344.306C301.7 343.88 302.126 343.24 302.553 342.6C302.979 341.96 301.487 341.107 300.847 340.681C300.207 340.254 295.729 328.526 294.876 325.754C294.023 322.982 294.663 319.357 294.45 318.717C294.279 318.205 289.83 306.989 287.626 301.444C285.067 301.302 279.864 301.103 279.523 301.444C279.096 301.871 278.03 310.187 278.03 314.026C278.03 317.864 279.523 332.578 279.523 335.137C279.523 337.184 278.243 338.975 277.604 339.615C277.888 339.686 278.542 340.084 278.883 341.107C279.31 342.387 275.898 343.88 273.765 343.666C271.633 343.453 270.567 341.747 269.927 341.107C269.415 340.596 270.14 340.041 270.567 339.828C270.211 339.686 269.415 339.231 269.074 338.548C268.733 337.866 269.501 337.553 269.927 337.482C267.652 333.36 262.89 324.517 262.037 322.129C261.184 319.741 260.402 313.884 260.118 311.254C258.27 307.202 254.147 297.436 252.441 290.782Z" fill="#40407F"/>
<path d="M283.264 291.957C277.595 292.191 267.081 290.69 260.843 282.892C254.019 274.363 251.318 264.554 250.82 260.715L249.541 252.825L239.519 245.149C239.163 243.585 238.836 239.562 240.372 235.979C241.907 232.397 244.139 229.795 245.063 228.942L262.549 237.899L272.998 242.377C273.069 245.22 273.424 251.418 274.277 253.465C275.307 255.937 281.712 262.789 283.298 263.25C284.884 262.789 291.289 255.937 292.319 253.465C292.405 253.259 292.508 253.016 292.624 252.741C293.664 250.287 295.75 245.36 295.814 242.803L304.047 237.899L321.533 228.942C322.457 229.795 324.689 232.397 326.224 235.979C327.76 239.562 327.433 243.585 327.077 245.149L313.3 253.465C313.3 253.465 314.877 262.848 309.462 270.311C306.901 273.841 307.314 276.849 306.606 278.628C305.817 280.61 304.713 281.912 302.128 284.385C294.934 291.266 288.148 292.168 283.264 291.957Z" fill="#FF4B8E"/>
<path fill-rule="evenodd" clip-rule="evenodd" d="M260.841 282.892C267.079 290.69 277.593 292.191 283.262 291.957C288.146 292.168 294.932 291.266 302.126 284.385C304.711 281.912 305.815 280.61 306.604 278.628C306.826 278.069 306.938 277.389 307.066 276.61C307.346 274.908 307.704 272.732 309.46 270.311C309.812 269.826 310.134 269.333 310.429 268.836C310.573 268.446 310.721 268.058 310.872 267.674C311.212 267.151 311.509 266.641 311.757 266.154C312.036 265.468 312.273 264.783 312.474 264.107C311.879 265.249 311.356 266.445 310.872 267.674C308.62 271.134 304.447 275.174 299.735 277.075C293.424 279.622 287.887 276.515 284.599 274.67C284.431 274.576 284.269 274.485 284.113 274.399C282.349 273.418 279.681 273.919 275.823 274.644C272.661 275.238 268.7 275.982 263.783 276.183C257.928 276.423 254.953 273.331 253.543 270.259C255.133 274.206 257.49 278.704 260.841 282.892ZM253.002 268.858C252.786 267.975 252.599 267.07 252.441 266.145C252.505 266.892 252.671 267.825 252.987 268.818C252.992 268.831 252.997 268.845 253.002 268.858Z" fill="#E32E71"/>
<path d="M265.369 214.853C267.05 204.361 272.023 203.021 274.3 203.662C275.234 202.846 277.977 200.899 281.479 199.64C285.856 198.066 295.662 205.935 297.763 209.258C299.865 212.58 299.874 228.92 296.372 238.538C293.57 246.232 287.202 252.745 285.283 252.745C283.364 252.745 276.54 249.333 272.915 244.641C267.513 237.65 263.268 227.969 265.369 214.853Z" fill="#FFB0B0"/>
<path d="M274.456 205.644C269.06 205.603 271.044 200.718 271.422 197.515C282.437 185.825 294.18 198.965 302.769 205.644C310.63 229.372 305.097 236.064 302.769 231.244C298.001 221.369 296.998 226.928 290.413 221.534C285.871 217.814 287.398 216.429 284.695 211.458C281.306 205.224 281.202 205.695 274.456 205.644Z" fill="#0E184B"/>
<path d="M294.968 237.434C296.503 230.951 294.328 224.355 293.048 221.867C292.338 218.1 291.342 211.461 293.048 215.043C295.181 219.521 304.35 224.426 308.402 227.411C312.453 230.397 311.814 229.117 309.681 237.434C307.549 245.75 308.402 242.338 309.681 249.375C310.961 256.412 305.843 254.28 303.284 263.022C300.725 271.765 306.909 273.045 308.402 276.883C309.894 280.722 304.137 286.692 305.843 282.641C307.549 278.589 301.578 274.751 298.806 273.045C296.034 271.339 294.968 267.501 294.968 260.464C294.968 253.427 299.446 254.066 298.806 249.375C298.166 244.684 293.048 245.537 294.968 237.434Z" fill="#0E184B"/>
<path d="M251.59 206.765C251.59 194.824 264.526 193.544 270.995 194.397C269.218 196.672 264.725 202.33 260.972 206.765C256.281 212.31 265.663 235.126 266.73 236.619C267.796 238.112 268.862 243.016 265.663 247.068C262.465 251.119 266.303 251.546 268.862 259.436C270.909 265.748 266.019 268.747 263.318 269.458C263.247 268.392 263.147 265.108 263.318 260.502C263.531 254.744 256.707 258.156 251.59 253.678C246.472 249.2 252.656 245.575 248.391 243.016C244.126 240.457 241.994 236.619 242.207 230.435C242.42 224.251 251.59 221.692 251.59 206.765Z" fill="#0E184B"/>
<path d="M281.842 230.022C282.053 229.347 281.049 226.178 280.521 224.677C281.397 226.17 282.638 229.241 282.297 230.435C281.871 231.928 280.378 234.06 280.378 234.913L282.937 237.259C282.937 237.259 279.738 235.766 279.738 234.913C279.738 234.06 281.578 230.866 281.842 230.022Z" fill="#EE8989"/>
<ellipse cx="273.523" cy="227.26" rx="2.0303" ry="2.655" fill="black"/>
<path d="M269.93 223.825C270.711 225.542 271.7 225.595 272.585 226.011C272.585 226.375 272.397 227.042 271.648 226.792C270.711 226.48 269.93 223.825 269.93 223.825Z" fill="black"/>
<ellipse cx="2.0303" cy="2.655" rx="2.0303" ry="2.655" transform="matrix(-1 0 0 1 290.624 223.326)" fill="black"/>
<path d="M292.187 222.545C291.406 224.263 290.417 224.315 289.532 224.732C289.532 225.096 289.719 225.762 290.469 225.512C291.406 225.2 292.187 222.545 292.187 222.545Z" fill="black"/>
<path d="M283.923 245.983C286.638 245.756 289.373 243.058 290.402 241.737C290.402 241.737 288.269 243.896 283.923 242.803C279.576 241.71 275.901 241.737 275.901 241.737C275.901 241.737 280.529 246.266 283.923 245.983Z" fill="white"/>
<path d="M272.117 218.764C269.966 218.39 267.951 219.957 267.371 220.632C268.479 219.542 271.01 219.698 272.117 220.32C273.003 220.819 275.862 221.151 277.18 221.254C276.389 220.58 274.269 219.137 272.117 218.764Z" fill="#0E184B"/>
<path d="M288.64 217.484C290.792 217.111 292.807 218.678 293.387 219.352C292.279 218.263 289.748 218.418 288.64 219.041C287.754 219.539 284.896 219.871 283.578 219.975C284.369 219.3 286.489 217.858 288.64 217.484Z" fill="#0E184B"/>
</svg>
